<svg width="10" height="10" viewBox="0 0 10 10" fill="none" xmlns="http://www.w3.org/2000/svg">
<g id="suggest/add">
<g id="Union">
<path d="M5.43747 8.78125C5.43747 8.85028 5.38151 8.90625 5.31247 8.90625H4.68747C4.61843 8.90625 4.56247 8.85029 4.56247 8.78125V5.43751H1.21875C1.14971 5.43751 1.09375 5.38154 1.09375 5.31251V4.68751C1.09375 4.61847 1.14971 4.56251 1.21875 4.56251H4.56247V1.21875C4.56247 1.14971 4.61843 1.09375 4.68747 1.09375H5.31247C5.38151 1.09375 5.43747 1.14971 5.43747 1.21875V4.56251H8.78125C8.85029 4.56251 8.90625 4.61847 8.90625 4.68751V5.31251C8.90625 5.38154 8.85029 5.43751 8.78125 5.43751H5.43747V8.78125Z" fill="#252525"/>
</g>
</g>
</svg>
