<svg width="111" height="24" viewBox="0 0 111 24" fill="none" xmlns="http://www.w3.org/2000/svg">
<circle cx="12" cy="12" r="12" fill="url(#paint0_linear_596_4532)"/>
<mask id="mask0_596_4532" style="mask-type:alpha" maskUnits="userSpaceOnUse" x="0" y="0" width="24" height="24">
<circle cx="12" cy="12" r="12" fill="url(#paint1_linear_596_4532)"/>
</mask>
<g mask="url(#mask0_596_4532)">
<circle cx="9.90771" cy="6.896" r="12" fill="url(#paint2_linear_596_4532)"/>
</g>
<path fill-rule="evenodd" clip-rule="evenodd" d="M12.7444 18.2738C12.4607 18.3307 12.2081 18.1043 12.2081 17.8149V15.4236C12.2081 15.1992 12.3639 15.0078 12.5742 14.9293C13.7612 14.4859 14.6065 13.3417 14.6065 12C14.6065 10.6583 13.7612 9.51403 12.5742 9.0707C12.3639 8.99216 12.2081 8.80079 12.2081 8.57632V6.18507C12.2081 5.89571 12.4607 5.66931 12.7444 5.72615C15.673 6.31283 17.8793 8.89876 17.8793 12C17.8793 12.0007 17.8793 12.0014 17.8793 12.0021C17.9432 14.4084 18.3227 15.3838 18.7024 16.1821C19.0906 16.9982 18.7437 17.9745 17.9276 18.3627C17.1114 18.7509 16.1352 18.404 15.747 17.5878C15.6556 17.3958 15.567 17.1991 15.4821 16.9933C14.6994 17.6214 13.7659 18.0692 12.7444 18.2738ZM10.3874 9.07059C10.5977 8.99207 10.7536 8.80068 10.7536 8.57619L10.7536 6.185C10.7536 5.89564 10.501 5.66925 10.2172 5.72607C7.28848 6.31261 5.08203 8.89862 5.08203 12C5.08203 15.1013 7.28848 17.6874 10.2172 18.2739C10.501 18.3307 10.7536 18.1043 10.7536 17.815L10.7536 15.4238C10.7536 15.1993 10.5977 15.0079 10.3874 14.9294C9.20019 14.4861 8.35476 13.3418 8.35476 12C8.35476 10.6582 9.20019 9.51384 10.3874 9.07059Z" fill="white"/>
<path fill-rule="evenodd" clip-rule="evenodd" d="M64.1114 9.30336H62.0344V18.6299H59.6925V9.30336H58.3689V7.40954H59.6925V6.61536C59.6925 5.32566 60.0319 4.38894 60.7107 3.80518C61.4031 3.20785 62.4824 2.90918 63.9485 2.90918V4.84372C63.2426 4.84372 62.7471 4.97948 62.462 5.251C62.1769 5.50894 62.0344 5.96373 62.0344 6.61536V7.40954H64.1114V9.30336ZM67.2479 18.3448C67.9538 18.6571 68.748 18.8132 69.6304 18.8132C70.4993 18.8132 71.2527 18.6707 71.8908 18.3856C72.5424 18.1005 73.0447 17.7068 73.3977 17.2045C73.7507 16.7022 73.9271 16.132 73.9271 15.4939C73.9136 14.7744 73.7167 14.1975 73.3366 13.763C72.9565 13.3286 72.5017 13.0028 71.9722 12.7856C71.4564 12.5548 70.7911 12.3308 69.9766 12.1136C69.3657 11.9371 68.9041 11.7945 68.5919 11.6859C68.2796 11.5638 68.0149 11.4008 67.7977 11.1972C67.5805 10.9936 67.4719 10.7424 67.4719 10.4438C67.4719 10.0636 67.6348 9.75818 67.9606 9.52739C68.2864 9.29661 68.7548 9.18121 69.3657 9.18121C69.9902 9.18121 70.4857 9.33054 70.8522 9.62921C71.2188 9.92788 71.4224 10.3284 71.4631 10.8307H73.7846C73.7303 9.71745 73.3094 8.84182 72.522 8.20376C71.7482 7.55212 70.7233 7.2263 69.4471 7.2263C68.5919 7.2263 67.8316 7.36885 67.1664 7.65394C66.5148 7.93903 66.0125 8.33273 65.6595 8.83503C65.3065 9.32376 65.1301 9.86679 65.1301 10.4641C65.1301 11.1972 65.3201 11.7878 65.7002 12.2358C66.0939 12.6838 66.5555 13.0164 67.085 13.2336C67.6144 13.4508 68.3 13.6748 69.1417 13.9056C70.0105 14.1499 70.6418 14.3739 71.0355 14.5776C71.4428 14.7812 71.6464 15.0935 71.6464 15.5143C71.6464 15.908 71.4631 16.2338 71.0966 16.4918C70.7436 16.7361 70.2413 16.8583 69.5897 16.8583C68.9652 16.8583 68.4425 16.7022 68.0217 16.3899C67.6144 16.0641 67.3904 15.6636 67.3497 15.1885H64.9468C64.9739 15.8673 65.1911 16.485 65.5984 17.0416C66.0057 17.5846 66.5555 18.019 67.2479 18.3448ZM75.0505 13.0096C75.0505 11.8556 75.2813 10.8442 75.7429 9.97539C76.2181 9.09297 76.8697 8.41418 77.6978 7.93903C78.5259 7.46388 79.4762 7.2263 80.5487 7.2263C81.9063 7.2263 83.0263 7.55212 83.9087 8.20376C84.8047 8.84182 85.4088 9.75818 85.7211 10.9528H83.2164C83.0127 10.3962 82.6869 9.96182 82.2389 9.64958C81.7909 9.33733 81.2275 9.18121 80.5487 9.18121C79.5984 9.18121 78.8382 9.52061 78.268 10.1994C77.7114 10.8646 77.4331 11.8013 77.4331 13.0096C77.4331 14.2178 77.7114 15.1613 78.268 15.8401C78.8382 16.5189 79.5984 16.8583 80.5487 16.8583C81.8927 16.8583 82.7819 16.2678 83.2164 15.0867H85.7211C85.3953 16.227 84.7844 17.1366 83.8884 17.8154C82.9924 18.4806 81.8791 18.8132 80.5487 18.8132C79.4762 18.8132 78.5259 18.5756 77.6978 18.1005C76.8697 17.6118 76.2181 16.933 75.7429 16.0641C75.2813 15.1817 75.0505 14.1635 75.0505 13.0096ZM87.3423 9.97539C86.8807 10.8442 86.6499 11.8421 86.6499 12.9688C86.6499 14.0956 86.8807 15.107 87.3423 16.003C87.8174 16.8855 88.4555 17.5778 89.2564 18.0801C90.0574 18.5688 90.9398 18.8132 91.9037 18.8132C92.7726 18.8132 93.5464 18.6367 94.2252 18.2838C94.904 17.9308 95.4402 17.4896 95.8339 16.9601V18.6299H98.1757V7.40958H95.8339V9.03867C95.4402 8.52279 94.9108 8.09515 94.2455 7.75576C93.5939 7.40279 92.8269 7.2263 91.9444 7.2263C90.967 7.2263 90.071 7.47067 89.2564 7.95939C88.4555 8.43455 87.8174 9.10655 87.3423 9.97539ZM95.3452 10.9936C95.671 11.5638 95.8339 12.2358 95.8339 13.0096C95.8339 13.7834 95.671 14.4622 95.3452 15.0459C95.0329 15.6161 94.6189 16.0505 94.103 16.3492C93.5871 16.6479 93.0305 16.7972 92.4332 16.7972C91.8494 16.7972 91.2928 16.6479 90.7634 16.3492C90.2475 16.037 89.8266 15.589 89.5008 15.0052C89.1886 14.4215 89.0324 13.7427 89.0324 12.9688C89.0324 12.195 89.1886 11.5298 89.5008 10.9732C89.8266 10.403 90.2475 9.97539 90.7634 9.6903C91.2792 9.39164 91.8358 9.2423 92.4332 9.2423C93.0305 9.2423 93.5871 9.39164 94.103 9.6903C94.6189 9.98897 95.0329 10.4234 95.3452 10.9936ZM108.638 7.77612C107.945 7.40958 107.158 7.2263 106.275 7.2263C105.61 7.2263 104.979 7.35527 104.382 7.61321C103.798 7.87115 103.316 8.23091 102.936 8.69248V7.40958H100.614V18.6299H102.936V12.3579C102.936 11.3533 103.187 10.5863 103.689 10.0568C104.205 9.51382 104.897 9.2423 105.766 9.2423C106.635 9.2423 107.321 9.51382 107.823 10.0568C108.325 10.5863 108.576 11.3533 108.576 12.3579V18.6299H110.878V12.0118C110.878 10.9936 110.681 10.1247 110.287 9.40521C109.893 8.6857 109.343 8.14267 108.638 7.77612ZM56.9704 18.6299V3.56085H54.6489V18.6299H56.9704ZM52.9747 12.7448C52.9747 13.1657 52.9475 13.5458 52.8932 13.8852H44.3201C44.388 14.7812 44.7206 15.5007 45.318 16.0438C45.9153 16.5868 46.6484 16.8583 47.5172 16.8583C48.7662 16.8583 49.6486 16.3356 50.1645 15.2903H52.6692C52.3298 16.3221 51.7121 17.1705 50.8161 17.8358C49.9337 18.4874 48.8341 18.8132 47.5172 18.8132C46.4448 18.8132 45.4809 18.5756 44.6256 18.1005C43.7839 17.6118 43.1187 16.933 42.63 16.0641C42.1548 15.1817 41.9172 14.1635 41.9172 13.0096C41.9172 11.8556 42.148 10.8442 42.6096 9.97539C43.0848 9.09297 43.7432 8.41418 44.5849 7.93903C45.4401 7.46388 46.4176 7.2263 47.5172 7.2263C48.5761 7.2263 49.5197 7.45709 50.3478 7.91867C51.1759 8.38024 51.8208 9.03188 52.2823 9.87358C52.7439 10.7017 52.9747 11.6588 52.9747 12.7448ZM50.5514 12.0118C50.5378 11.1565 50.2324 10.4709 49.6351 9.95503C49.0377 9.43915 48.2978 9.18121 47.4154 9.18121C46.6145 9.18121 45.9289 9.43915 45.3587 9.95503C44.7885 10.4573 44.4491 11.1429 44.3405 12.0118H50.5514ZM29.4194 9.97539C28.9578 10.8442 28.7271 11.8421 28.7271 12.9688C28.7271 14.0956 28.9578 15.107 29.4194 16.003C29.8946 16.8855 30.5326 17.5778 31.3336 18.0801C32.1346 18.5688 33.017 18.8132 33.9809 18.8132C34.8497 18.8132 35.6235 18.6367 36.3023 18.2838C36.9811 17.9308 37.5174 17.4896 37.9111 16.9601V18.6299H40.2529V7.40958H37.9111V9.03867C37.5174 8.52279 36.9879 8.09515 36.3227 7.75576C35.6711 7.40279 34.904 7.2263 34.0216 7.2263C33.0441 7.2263 32.1481 7.47067 31.3336 7.95939C30.5326 8.43455 29.8946 9.10655 29.4194 9.97539ZM37.4223 10.9936C37.7481 11.5638 37.9111 12.2358 37.9111 13.0096C37.9111 13.7834 37.7481 14.4622 37.4223 15.0459C37.1101 15.6161 36.696 16.0505 36.1801 16.3492C35.6643 16.6479 35.1077 16.7972 34.5103 16.7972C33.9266 16.7972 33.37 16.6479 32.8405 16.3492C32.3246 16.037 31.9038 15.589 31.578 15.0052C31.2657 14.4215 31.1096 13.7427 31.1096 12.9688C31.1096 12.195 31.2657 11.5298 31.578 10.9732C31.9038 10.403 32.3246 9.97539 32.8405 9.6903C33.3564 9.39164 33.913 9.2423 34.5103 9.2423C35.1077 9.2423 35.6643 9.39164 36.1801 9.6903C36.696 9.98897 37.1101 10.4234 37.4223 10.9936Z" fill="#020617"/>
<defs>
<linearGradient id="paint0_linear_596_4532" x1="17.2564" y1="6.25768" x2="6.6538" y2="23.1816" gradientUnits="userSpaceOnUse">
<stop stop-color="#1755AF"/>
<stop offset="0.84788" stop-color="#3184FF"/>
</linearGradient>
<linearGradient id="paint1_linear_596_4532" x1="22.1964" y1="8.88573" x2="4.98063" y2="21.295" gradientUnits="userSpaceOnUse">
<stop stop-color="#266CD3"/>
<stop offset="1" stop-color="#2ED9FF"/>
</linearGradient>
<linearGradient id="paint2_linear_596_4532" x1="15.1641" y1="1.15368" x2="4.56152" y2="18.0776" gradientUnits="userSpaceOnUse">
<stop offset="0.152119" stop-color="#3585FC"/>
<stop offset="1" stop-color="#0445A6"/>
</linearGradient>
</defs>
</svg>
