<svg xmlns="http://www.w3.org/2000/svg" width="107" height="32" viewBox="0 0 107 32" fill="none">
  <path d="M82.1835 0H87.5489V31.968H82.1835V0Z" fill="#266CD3"/>
  <path d="M19.4186 5.64963C20.7113 4.38061 20.7305 2.30392 19.4615 1.01121C18.1925 -0.281506 16.1158 -0.300717 14.8231 0.9683C13.5303 2.23732 13.5111 4.31401 14.7801 5.60672C16.0492 6.89944 18.1259 6.91865 19.4186 5.64963Z" fill="#266CD3"/>
  <path d="M26.8168 9.50713C30.4137 10.36 32.6381 13.9673 31.7852 17.5642C30.9322 21.1611 27.325 23.3855 23.7281 22.5326C20.1312 21.6797 17.9068 18.0724 18.7597 14.4755C19.6126 10.8786 23.2199 8.65421 26.8168 9.50713Z" fill="#266CD3"/>
  <path d="M19.4634 26.4175C20.7324 27.7102 20.7132 29.7869 19.4204 31.0559C18.1277 32.3249 16.051 32.3057 14.782 31.013C13.513 29.7203 13.5322 27.6436 14.8249 26.3746C16.1176 25.1056 18.1943 25.1248 19.4634 26.4175Z" fill="#266CD3"/>
  <path d="M0.311554 6.78398C-0.465354 8.87023 0.246235 11.2185 2.05052 12.5225C3.8548 13.8266 6.30772 13.7655 8.04489 12.3733C9.26543 11.4818 10.8516 11.2615 12.2689 11.7867C13.1768 12.1145 13.9535 12.7284 14.4822 13.536L14.5622 13.6587C14.7912 14.0316 15.1386 14.317 15.5489 14.4693C16.5798 14.8493 17.7236 14.3216 18.1036 13.2907C18.4835 12.2597 17.9558 11.116 16.9249 10.736C16.4907 10.5787 16.0151 10.5787 15.5809 10.736C14.4324 11.1017 13.1852 10.9916 12.1185 10.4302C11.0519 9.86881 10.255 8.9031 9.90622 7.74932L9.86889 7.61065L9.81022 7.46665L9.78356 7.36532C9.28344 5.23627 7.44658 3.68695 5.26369 3.55298C3.08081 3.41901 1.06827 4.73207 0.311554 6.78398Z" fill="#266CD3"/>
  <path d="M2.06966 19.5213C0.269203 20.8226 -0.445033 23.1632 0.322161 25.2481C1.08524 27.2906 3.0939 28.5942 5.27013 28.4592C7.44636 28.3243 9.27859 26.7825 9.7835 24.6614L9.81016 24.5601C9.82011 24.5132 9.83257 24.4669 9.8475 24.4214L9.88483 24.2827C10.2324 23.1293 11.0283 22.1637 12.0941 21.6022C13.1599 21.0407 14.4064 20.9304 15.5542 21.2961C15.9865 21.4534 16.4605 21.4534 16.8928 21.2961C17.5597 21.0503 18.0448 20.4673 18.1654 19.7669C18.286 19.0665 18.0237 18.3549 17.4774 17.9002C16.9311 17.4456 16.1837 17.3169 15.5168 17.5627C15.1055 17.7132 14.7576 17.9991 14.5302 18.3734L14.4555 18.4961C13.7786 19.521 12.7123 20.2249 11.5038 20.4444C10.2953 20.664 9.04961 20.3801 8.0555 19.6587C6.31664 18.2762 3.87011 18.22 2.06966 19.5213Z" fill="#266CD3"/>
  <path fill-rule="evenodd" clip-rule="evenodd" d="M61.5862 8.7947H57.5649V11.6066C55.5344 9.85432 52.8894 8.7947 49.997 8.7947C43.5963 8.7947 38.4076 13.9834 38.4076 20.384C38.4076 26.7847 43.5963 31.9734 49.997 31.9734C52.8894 31.9734 55.5344 30.9138 57.5649 29.1615V31.968H61.5862V29.1952C61.9371 29.4955 62.3091 29.7775 62.7015 30.0389C67.3037 33.1053 73.4314 32.4928 77.3356 28.5761L74.2902 25.5254C73.0545 26.5716 71.488 27.146 69.8689 27.1468C66.881 27.1528 64.2295 25.2339 63.3008 22.3947H76.4094L76.4076 22.4001H80.5356C80.6553 21.7365 80.716 21.0637 80.7169 20.3894C80.7146 14.8592 76.8052 10.1011 71.3804 9.02605C67.7987 8.31627 64.2153 9.34267 61.5862 11.5933V8.7947ZM63.2195 18.3733H76.4906C76.0801 16.9231 75.1963 15.6106 73.9173 14.6783C71.5007 12.9166 68.224 12.9133 65.8039 14.6702C64.5192 15.6028 63.6313 16.9186 63.2195 18.3733ZM57.5478 19.8914C57.3651 17.3013 55.7357 15.0149 53.3116 14.0092C50.735 12.9401 47.768 13.5288 45.7946 15.5006C43.8213 17.4724 43.2303 20.4389 44.2974 23.0165C45.3644 25.594 47.8793 27.2747 50.669 27.2747C52.4974 27.2761 54.2514 26.5508 55.5448 25.2584C56.7215 24.0826 57.4291 22.5254 57.5473 20.8772C57.5335 20.5496 57.5336 20.2207 57.5478 19.8914Z" fill="#266CD3"/>
  <path d="M88.9943 17.0187V11.6534H92.0876V8.53333C92.0817 3.85029 95.8686 0.0466929 100.552 0.0319885H103.709V5.40266H100.552C98.833 5.4173 97.4476 6.81467 97.4476 8.53333V11.6534H103.709V17.0187H97.4476V32H92.0876V17.0187H88.9943Z" fill="#266CD3"/>
  <path d="M106.669 26.6346H101.304V32H106.669V26.6346Z" fill="#266CD3"/>
</svg>