<svg xmlns="http://www.w3.org/2000/svg" width="48" height="48" viewBox="0 0 48 48" fill="none">
  <path d="M18.5512 8.80391C18.5512 11.785 16.1345 14.2016 13.1535 14.2016C10.1725 14.2016 7.75585 11.785 7.75585 8.80391C7.75585 5.82287 10.1725 3.40625 13.1535 3.40625C16.1345 3.40625 18.5512 5.82287 18.5512 8.80391ZM15.0147 15.1354L15.1592 15.2062L13.2292 18.0259L11.2401 15.1198C11.8457 15.3031 12.4881 15.4016 13.1535 15.4016C13.7998 15.4016 14.4245 15.3086 15.0147 15.1354ZM16.6066 14.4269C18.4932 13.2658 19.7512 11.1817 19.7512 8.80391C19.7512 5.16012 16.7973 2.20625 13.1535 2.20625C9.50972 2.20625 6.55585 5.16012 6.55585 8.80391C6.55585 11.2126 7.84663 13.3198 9.77422 14.4716L6.08714 16.2786C4.51074 17.0512 3.51154 18.6537 3.51154 20.4092V30.0312H4.71154V20.4092C4.71154 19.1117 5.45008 17.9272 6.61524 17.3562L9.85175 15.77L8.85175 18.6882C8.85175 19.2404 9.29946 19.6882 9.85175 19.6882H11.7231L10.6459 26.532C10.6113 26.7516 10.6832 26.9746 10.8394 27.1328L12.7312 29.0476C13.0052 29.325 13.453 29.325 13.7271 29.0476L15.6176 27.1341C15.7787 26.971 15.8497 26.7393 15.8077 26.5139L14.5361 19.6882H16.6066C17.1589 19.6882 17.6066 19.2404 17.6066 18.6882L16.6066 15.9155L19.5461 17.3562C20.7112 17.9272 21.4498 19.1117 21.4498 20.4092V30.0312H22.6498V20.4092C22.6498 18.6537 21.6506 17.0512 20.0742 16.2786L16.6066 14.5792V14.4269ZM11.8706 26.4691L12.9379 19.6882H13.3155L14.5802 26.4767L13.2291 27.8442L11.8706 26.4691ZM11.0517 16.9692L12.0914 18.4882H10.0517L11.0517 16.9692ZM15.4066 16.9692L16.4066 18.4882H14.3669L15.4066 16.9692ZM40.3898 8.80391C40.3898 11.785 37.9732 14.2016 34.9922 14.2016C32.0111 14.2016 29.5945 11.785 29.5945 8.80391C29.5945 5.82287 32.0111 3.40625 34.9922 3.40625C37.9732 3.40625 40.3898 5.82287 40.3898 8.80391ZM36.8534 15.1354L36.9978 15.2062L35.0678 18.0259L33.0787 15.1198C33.6844 15.3031 34.3268 15.4016 34.9922 15.4016C35.6385 15.4016 36.2631 15.3086 36.8534 15.1354ZM38.4453 14.4269C40.3319 13.2658 41.5898 11.1817 41.5898 8.80391C41.5898 5.16012 38.636 2.20625 34.9922 2.20625C31.3484 2.20625 28.3945 5.16012 28.3945 8.80391C28.3945 11.2126 29.6853 13.3198 31.6129 14.4716L27.9258 16.2786C26.3494 17.0512 25.3502 18.6537 25.3502 20.4092V30.0312H26.5502V20.4092C26.5502 19.1117 27.2888 17.9272 28.4539 17.3562L31.6904 15.77L30.6904 18.6882C30.6904 19.2404 31.1381 19.6882 31.6904 19.6882H33.5618L32.4846 26.532C32.45 26.7516 32.5219 26.9746 32.6781 27.1328L34.5698 29.0476C34.8439 29.325 35.2917 29.325 35.5658 29.0476L37.4562 27.1341C37.6174 26.971 37.6884 26.7393 37.6464 26.5139L36.3748 19.6882H38.4453C38.9976 19.6882 39.4453 19.2404 39.4453 18.6882L38.4453 15.9155L41.3848 17.3562C42.5499 17.9272 43.2885 19.1117 43.2885 20.4092V30.0312H44.4885V20.4092C44.4885 18.6537 43.4893 17.0512 41.9129 16.2786L38.4453 14.5792V14.4269ZM33.7093 26.4691L34.7765 19.6882H35.1541L36.4188 26.4767L35.0678 27.8442L33.7093 26.4691ZM32.8904 16.9692L33.9301 18.4882H31.8904L32.8904 16.9692ZM37.2453 16.9692L38.2453 18.4882H36.2056L37.2453 16.9692ZM2.97107 34.2312C2.52924 34.2312 2.17107 34.5894 2.17107 35.0312V43.7937C2.17107 44.2356 2.52924 44.5937 2.97107 44.5937H45.0289C45.4708 44.5937 45.8289 44.2356 45.8289 43.7937V35.0312C45.8289 34.5894 45.4708 34.2312 45.0289 34.2312H2.97107ZM0.971069 35.0312C0.971069 33.9266 1.8665 33.0312 2.97107 33.0312H45.0289C46.1335 33.0312 47.0289 33.9266 47.0289 35.0312V43.7937C47.0289 44.8983 46.1335 45.7937 45.0289 45.7937H2.97107C1.8665 45.7937 0.971069 44.8983 0.971069 43.7937V35.0312Z" fill="#266CD3"/>
</svg>