<svg width="14" height="14" viewBox="0 0 14 14" fill="none" xmlns="http://www.w3.org/2000/svg">
<g id="Group 48097363">
<g id="Subtract">
<path d="M13.125 7C13.125 10.3827 10.3827 13.125 7 13.125C3.61726 13.125 0.875 10.3827 0.875 7C0.875 3.61726 3.61726 0.875 7 0.875C10.3827 0.875 13.125 3.61726 13.125 7ZM6.27604 9.21616C6.39206 9.21939 6.50913 9.17674 6.59768 9.08819L10.1862 5.49962C10.2546 5.43128 10.2546 5.32047 10.1862 5.25213L9.66033 4.72622C9.59199 4.65788 9.48119 4.65788 9.41285 4.72622L6.28786 7.85121L4.5872 6.15055C4.51886 6.08221 4.40806 6.08221 4.33972 6.15055L3.8138 6.67646C3.74546 6.7448 3.74546 6.85561 3.8138 6.92395L5.97802 9.08816C6.06056 9.17071 6.16788 9.21337 6.27604 9.21616Z" fill="#00A186"/>
</g>
</g>
</svg>
