<svg xmlns="http://www.w3.org/2000/svg" width="12" height="12" viewBox="0 0 12 12" fill="none">
  <path fill-rule="evenodd" clip-rule="evenodd" d="M10.9287 1.5C11.082 1.5 11.2095 1.55563 11.3119 1.66696C11.4136 1.77995 11.4643 1.92075 11.4643 2.08929C11.4643 2.2546 11.4131 2.39375 11.3098 2.50674L4.88064 9.57816C4.77786 9.69264 4.65071 9.75 4.5 9.75C4.34943 9.75 4.22214 9.69264 4.11907 9.57808L0.9045 6.0441C0.801429 5.92946 0.75 5.79031 0.75 5.625C0.75 5.45639 0.800571 5.31559 0.902857 5.20268C1.00464 5.09134 1.13229 5.03571 1.28543 5.03571C1.43636 5.03571 1.56343 5.09134 1.66657 5.20598L4.5 8.32754L10.5477 1.67019C10.6509 1.55571 10.7781 1.5 10.9287 1.5Z" fill="#266CD3"/>
</svg>