<svg width="20" height="20" viewBox="0 0 20 20" fill="none" xmlns="http://www.w3.org/2000/svg">
<g id="Social Icons / Discord">
<path id="Vector" d="M16.9419 3.37447C15.6279 2.76261 14.2407 2.32854 12.8158 2.08334C12.6208 2.43786 12.4444 2.80262 12.2872 3.17608C10.7694 2.94345 9.22586 2.94345 7.70802 3.17608C7.55081 2.80265 7.37438 2.43791 7.17947 2.08334C5.75362 2.33061 4.36551 2.76571 3.05017 3.37767C0.438871 7.30703 -0.26901 11.1388 0.0849306 14.9162C1.61417 16.0653 3.32583 16.9393 5.14549 17.5C5.55523 16.9395 5.91779 16.3449 6.22934 15.7225C5.6376 15.4977 5.06647 15.2204 4.52256 14.8938C4.66571 14.7882 4.80571 14.6794 4.94099 14.5738C6.52365 15.3308 8.25105 15.7233 9.99998 15.7233C11.7489 15.7233 13.4763 15.3308 15.059 14.5738C15.1958 14.6874 15.3358 14.7962 15.4774 14.8938C14.9324 15.221 14.3603 15.4988 13.7675 15.7241C14.0786 16.3462 14.4412 16.9403 14.8513 17.5C16.6726 16.9415 18.3855 16.068 19.915 14.9178C20.3303 10.5372 19.2056 6.74066 16.9419 3.37447ZM6.67766 12.5931C5.69135 12.5931 4.8765 11.6828 4.8765 10.5628C4.8765 9.4429 5.66303 8.52455 6.67452 8.52455C7.686 8.52455 8.49456 9.4429 8.47725 10.5628C8.45995 11.6828 7.68285 12.5931 6.67766 12.5931ZM13.3223 12.5931C12.3344 12.5931 11.5227 11.6828 11.5227 10.5628C11.5227 9.4429 12.3092 8.52455 13.3223 8.52455C14.3354 8.52455 15.1376 9.4429 15.1203 10.5628C15.103 11.6828 14.3275 12.5931 13.3223 12.5931Z" fill="#64748B"/>
</g>
</svg>
