<svg width="48" height="48" viewBox="0 0 48 48" fill="none" xmlns="http://www.w3.org/2000/svg">
<g id="Group 48097361">
<g id="Subtract">
<path d="M45 24C45 35.598 35.598 45 24 45C12.402 45 3 35.598 3 24C3 12.402 12.402 3 24 3C35.598 3 45 12.402 45 24ZM25.275 27C25.6064 27 25.875 26.7314 25.875 26.4V14.1C25.875 13.7686 25.6064 13.5 25.275 13.5H22.725C22.3936 13.5 22.125 13.7686 22.125 14.1V26.4C22.125 26.7314 22.3936 27 22.725 27H25.275ZM23.9999 34.5C25.4911 34.5 26.6999 33.2912 26.6999 31.8C26.6999 30.3089 25.4911 29.1 23.9999 29.1C22.5088 29.1 21.2999 30.3089 21.2999 31.8C21.2999 33.2912 22.5088 34.5 23.9999 34.5Z" fill="#FF4D4F"/>
</g>
</g>
</svg>
