<svg width="20" height="20" viewBox="0 0 20 20" fill="none" xmlns="http://www.w3.org/2000/svg">
<g id="Icon/Fill/Tree">
<rect id="Rectangle 44" width="20" height="20" rx="10" fill="#1B76E2"/>
<path id="Vector" d="M13.2939 14.3207H10.8415V15.1604C10.8415 15.6227 10.468 16 10.0019 16C9.53584 16 9.16226 15.6264 9.16226 15.1604V14.3207H6.70992C6.06632 14.3207 5.66315 13.6253 5.98495 13.0668L7.79738 9.93018H7.54586C6.89856 9.93018 6.49539 9.2311 6.81719 8.67257L9.27322 4.41889C9.59502 3.86037 10.4051 3.86037 10.7269 4.41889L13.1829 8.67257C13.5047 9.2311 13.1015 9.93018 12.4542 9.93018H12.2027L14.0151 13.0668C14.3369 13.6253 13.9338 14.3207 13.2902 14.3207H13.2939Z" fill="white"/>
</g>
</svg>
