<svg width="24" height="24" viewBox="0 0 24 24" fill="none" xmlns="http://www.w3.org/2000/svg">
<g id="Chain Logo">
<circle id="Circle" cx="12" cy="12" r="12" fill="#266CD3"/>
<path id="Shape" fill-rule="evenodd" clip-rule="evenodd" d="M12.4952 7.75055C13.3102 7.75055 13.9708 7.0899 13.9708 6.27494C13.9708 5.45997 13.3102 4.79932 12.4952 4.79932C11.6802 4.79932 11.0196 5.45997 11.0196 6.27494C11.0196 7.0899 11.6802 7.75055 12.4952 7.75055ZM19.1606 11.9992C19.1606 13.6572 17.8165 15.0013 16.1585 15.0013C14.5005 15.0013 13.1564 13.6572 13.1564 11.9992C13.1564 10.3412 14.5005 8.99707 16.1585 8.99707C17.8165 8.99707 19.1606 10.3412 19.1606 11.9992ZM13.9709 17.7232C13.9709 18.5381 13.3102 19.1988 12.4953 19.1988C11.6803 19.1988 11.0197 18.5381 11.0197 17.7232C11.0197 16.9082 11.6803 16.2476 12.4953 16.2476C13.3102 16.2476 13.9709 16.9082 13.9709 17.7232ZM4.93886 7.85247C4.50635 8.99735 5.11695 10.2949 6.26182 10.7274C7.02508 11.0072 7.83921 10.8546 8.42437 10.3712C8.95864 9.98958 9.64557 9.86237 10.3071 10.1168C10.7396 10.2694 11.0703 10.5493 11.2993 10.9055L11.3247 10.9564C11.4265 11.109 11.5791 11.2617 11.7827 11.3125C12.2406 11.4906 12.7749 11.2362 12.9276 10.7783C13.1056 10.3203 12.8512 9.78604 12.3933 9.63339C12.1897 9.55707 11.9862 9.55707 11.7827 9.63339C11.3756 9.7606 10.9177 9.7606 10.4851 9.60795C9.8491 9.37898 9.41659 8.87014 9.2385 8.28498L9.21306 8.2341C9.21306 8.20866 9.21306 8.18322 9.18762 8.18322V8.13233C9.00953 7.41996 8.52614 6.80936 7.78833 6.55495C6.64345 6.097 5.34592 6.68216 4.93886 7.85247ZM6.26182 13.2712C5.11695 13.7038 4.50635 15.0013 4.93886 16.1462C5.37136 17.3165 6.64345 17.9016 7.78833 17.4437C8.52614 17.1893 9.00953 16.5787 9.18762 15.8663V15.8154C9.21306 15.8154 9.21306 15.79 9.21306 15.7645L9.2385 15.7136C9.41659 15.1285 9.8491 14.6197 10.4851 14.3907C10.9177 14.238 11.3756 14.238 11.7827 14.3652C11.9862 14.4416 12.1897 14.4416 12.3933 14.3652C12.8512 14.2126 13.1056 13.6783 12.9276 13.2204C12.7749 12.7624 12.2406 12.508 11.7827 12.6861C11.5791 12.737 11.4265 12.8896 11.3247 13.0423L11.2993 13.0932C11.0703 13.4493 10.7396 13.7292 10.3071 13.8818C9.64557 14.1363 8.95864 14.0091 8.42437 13.6274C7.83921 13.144 7.02508 12.9914 6.26182 13.2712Z" fill="white"/>
</g>
</svg>
