<svg xmlns="http://www.w3.org/2000/svg" width="49" height="48" viewBox="0 0 49 48" fill="none">
  <g clip-path="url(#clip0_8379_34273)">
    <path d="M34.5167 10.0393C32.8046 10.0393 31.4167 8.65137 31.4167 6.93928C31.4167 5.2272 32.8046 3.83928 34.5167 3.83928C36.2288 3.83928 37.6167 5.2272 37.6167 6.93928C37.6167 8.65137 36.2288 10.0393 34.5167 10.0393ZM37.3217 10.1985C38.2371 9.40992 38.8167 8.24229 38.8167 6.93928C38.8167 4.56446 36.8915 2.63928 34.5167 2.63928C32.3455 2.63928 30.5501 4.24848 30.2582 6.33928H19.0751C18.7832 4.24848 16.9879 2.63928 14.8167 2.63928C12.4418 2.63928 10.5167 4.56446 10.5167 6.93928C10.5167 8.08203 10.9624 9.12067 11.6896 9.89078L5.95968 19.8152C5.64091 19.7399 5.30842 19.7 4.96663 19.7C2.5918 19.7 0.666626 21.6252 0.666626 24C0.666626 26.3748 2.5918 28.3 4.96663 28.3C5.29887 28.3 5.62232 28.2623 5.93292 28.191L11.6708 38.1292C10.9548 38.8973 10.5167 39.9278 10.5167 41.0607C10.5167 43.4355 12.4418 45.3607 14.8167 45.3607C16.9879 45.3607 18.7832 43.7515 19.0751 41.6607H30.2582C30.5501 43.7515 32.3455 45.3607 34.5167 45.3607C36.8915 45.3607 38.8167 43.4355 38.8167 41.0607C38.8167 39.7673 38.2457 38.6073 37.342 37.8191L42.9714 28.0686C43.4089 28.2186 43.8783 28.3 44.3666 28.3C46.7415 28.3 48.6666 26.3748 48.6666 24C48.6666 21.6252 46.7415 19.7 44.3666 19.7C43.8688 19.7 43.3908 19.7846 42.9461 19.9402L37.3217 10.1985ZM7.08891 20.2594L12.6383 10.6475C13.2772 11.0236 14.0217 11.2393 14.8167 11.2393C15.4122 11.2393 15.9796 11.1182 16.4953 10.8993L18.4294 14.2493C16.9154 15.216 15.6047 16.5506 14.6445 18.2137C13.6975 19.8541 13.1976 21.6299 13.1072 23.4H9.2251C9.03696 22.0524 8.22426 20.9049 7.08891 20.2594ZM9.2251 24.6H13.1083C13.2994 28.217 15.1829 31.6749 18.4305 33.7488L16.4953 37.1007C15.9795 36.8818 15.4122 36.7607 14.8167 36.7607C14.0123 36.7607 13.2596 36.9816 12.6157 37.3659L7.06601 27.7536C8.21332 27.1105 9.03569 25.9566 9.2251 24.6ZM17.5236 37.7195L19.4735 34.3423C22.8858 36.0596 26.7929 35.9301 29.9919 34.2762L31.927 37.6277C31.0389 38.2987 30.4194 39.3063 30.2582 40.4607H19.0751C18.9211 39.3578 18.3488 38.3889 17.5236 37.7195ZM32.9761 37.0449L31.0279 33.6705C32.4895 32.7107 33.7549 31.4039 34.6888 29.7863C35.6359 28.1459 36.1357 26.3701 36.2261 24.6H40.1082C40.2767 25.8073 40.9466 26.8541 41.9007 27.5231L36.3351 37.163C35.7828 36.9049 35.1666 36.7607 34.5167 36.7607C33.9738 36.7607 33.4544 36.8613 32.9761 37.0449ZM40.1082 23.4H36.225C36.0363 19.8293 34.1983 16.4136 31.0268 14.3314L32.9761 10.9551C33.4544 11.1387 33.9738 11.2393 34.5167 11.2393C35.1572 11.2393 35.765 11.0992 36.3111 10.8481L41.8791 20.4921C40.9365 21.1618 40.2755 22.2018 40.1082 23.4ZM31.9269 10.3723L29.9913 13.7249C26.5947 11.9614 22.6886 12.046 19.473 13.6569L17.5236 10.2805C18.3488 9.61108 18.9212 8.64219 19.0751 7.53928H30.2582C30.4194 8.69369 31.0389 9.70129 31.9269 10.3723ZM4.96663 27.1C3.25454 27.1 1.86663 25.7121 1.86663 24C1.86663 22.2879 3.25454 20.9 4.96663 20.9C6.67871 20.9 8.06663 22.2879 8.06663 24C8.06663 25.7121 6.67871 27.1 4.96663 27.1ZM44.3666 27.1C42.6546 27.1 41.2667 25.7121 41.2667 24C41.2667 22.2879 42.6546 20.9 44.3666 20.9C46.0787 20.9 47.4667 22.2879 47.4667 24C47.4667 25.7121 46.0787 27.1 44.3666 27.1ZM17.9167 41.0607C17.9167 42.7728 16.5287 44.1607 14.8167 44.1607C13.1046 44.1607 11.7167 42.7728 11.7167 41.0607C11.7167 39.3486 13.1046 37.9607 14.8167 37.9607C16.5287 37.9607 17.9167 39.3486 17.9167 41.0607ZM37.6167 41.0607C37.6167 42.7728 36.2288 44.1607 34.5167 44.1607C32.8046 44.1607 31.4167 42.7728 31.4167 41.0607C31.4167 39.3486 32.8046 37.9607 34.5167 37.9607C36.2288 37.9607 37.6167 39.3486 37.6167 41.0607ZM14.8167 10.0393C13.1046 10.0393 11.7167 8.65137 11.7167 6.93928C11.7167 5.2272 13.1046 3.83928 14.8167 3.83928C16.5287 3.83928 17.9167 5.2272 17.9167 6.93928C17.9167 8.65137 16.5287 10.0393 14.8167 10.0393ZM33.6496 29.1863C30.7853 34.1474 24.4415 35.8472 19.4804 32.9829C14.5192 30.1186 12.8194 23.7748 15.6837 18.8137C18.548 13.8526 24.8918 12.1528 29.853 15.0171C34.8141 17.8814 36.5139 24.2252 33.6496 29.1863ZM25.953 20.1198C26.437 19.6446 26.4442 18.867 25.969 18.383C25.4938 17.8989 24.7162 17.8917 24.2322 18.3669C23.7481 18.8421 23.7409 19.6197 24.2161 20.1037C24.6913 20.5878 25.4689 20.595 25.953 20.1198ZM28.7232 21.5642C30.07 21.8836 30.9029 23.2343 30.5836 24.5812C30.2642 25.928 28.9135 26.7609 27.5666 26.4416C26.2198 26.1222 25.3869 24.7715 25.7062 23.4246C26.0256 22.0778 27.3763 21.2449 28.7232 21.5642ZM25.9537 29.6331C26.4377 29.1579 26.4449 28.3803 25.9697 27.8962C25.4945 27.4122 24.7169 27.405 24.2329 27.8802C23.7488 28.3554 23.7416 29.133 24.2168 29.617C24.692 30.1011 25.4696 30.1083 25.9537 29.6331ZM18.7984 20.5446C18.5075 21.3258 18.774 22.205 19.4496 22.6933C20.1252 23.1816 21.0437 23.1588 21.6941 22.6375C22.1512 22.3036 22.7451 22.2212 23.2758 22.4178C23.6157 22.5405 23.9066 22.7704 24.1046 23.0728L24.1345 23.1188C24.2203 23.2584 24.3503 23.3653 24.504 23.4223C24.89 23.5646 25.3183 23.367 25.4606 22.981C25.6028 22.5949 25.4052 22.1667 25.0192 22.0244C24.8566 21.9655 24.6785 21.9655 24.516 22.0244C24.0859 22.1613 23.6189 22.1201 23.2195 21.9099C22.8201 21.6997 22.5217 21.3381 22.3911 20.906L22.3771 20.8541L22.3552 20.8002L22.3452 20.7622C22.1579 19.965 21.4701 19.3849 20.6527 19.3347C19.8354 19.2846 19.0818 19.7762 18.7984 20.5446ZM18.8024 27.4584C18.5151 26.6777 18.7826 25.8013 19.4567 25.314C20.1309 24.8267 21.047 24.8478 21.6981 25.3655C22.0703 25.6356 22.5368 25.7419 22.9893 25.6597C23.4418 25.5774 23.8411 25.3139 24.0946 24.9301L24.1225 24.8842C24.2077 24.744 24.338 24.637 24.492 24.5806C24.7417 24.4886 25.0215 24.5368 25.2261 24.707C25.4307 24.8772 25.5289 25.1437 25.4837 25.406C25.4386 25.6682 25.2569 25.8865 25.0072 25.9785C24.8453 26.0375 24.6678 26.0375 24.5059 25.9785C24.0762 25.8416 23.6094 25.8829 23.2103 26.0932C22.8113 26.3034 22.5132 26.665 22.3831 27.0969L22.3691 27.1488C22.3635 27.1659 22.3589 27.1832 22.3551 27.2007L22.3451 27.2387C22.1561 28.0329 21.47 28.6102 20.6551 28.6608C19.8403 28.7113 19.0881 28.2232 18.8024 27.4584Z" fill="#266CD3"/>
  </g>
  <defs>
    <clipPath id="clip0_8379_34273">
      <rect width="48" height="48" fill="white" transform="translate(0.666626)"/>
    </clipPath>
  </defs>
</svg>