<?xml version="1.0" encoding="UTF-8"?>
<svg id="Layer_2" xmlns="http://www.w3.org/2000/svg" xmlns:xlink="http://www.w3.org/1999/xlink" viewBox="0 0 1786.52 1585">
  <defs>
    <style>
      .cls-1 {
        fill: url(#linear-gradient-5);
      }

      .cls-2 {
        fill: url(#linear-gradient-6);
      }

      .cls-3 {
        fill: url(#linear-gradient-4);
      }

      .cls-4 {
        fill: url(#linear-gradient-3);
      }

      .cls-5 {
        fill: url(#linear-gradient-2);
      }

      .cls-6 {
        fill: url(#linear-gradient);
      }
    </style>
    <linearGradient id="linear-gradient" x1="943.14" y1="1071.12" x2="978.99" y2="1071.12" gradientUnits="userSpaceOnUse">
      <stop offset="0" stop-color="#e6effc"/>
      <stop offset="1" stop-color="#b0c5f7"/>
    </linearGradient>
    <linearGradient id="linear-gradient-2" x1="1758.86" y1="325.32" x2="1061.17" y2="1047.44" gradientUnits="userSpaceOnUse">
      <stop offset="0" stop-color="#f3f7ff"/>
      <stop offset="1" stop-color="#cdd9ff"/>
    </linearGradient>
    <linearGradient id="linear-gradient-3" x1="954.9" y1="557.25" x2="949.9" y2="557.25" xlink:href="#linear-gradient"/>
    <linearGradient id="linear-gradient-4" x1="211.28" y1="153.05" x2="1153.29" y2="446.24" xlink:href="#linear-gradient-2"/>
    <linearGradient id="linear-gradient-5" x1="1651.04" y1="120.69" x2="958.78" y2="462.75" xlink:href="#linear-gradient-2"/>
    <linearGradient id="linear-gradient-6" x1="140.55" y1="260.74" x2="574.91" y2="803.69" xlink:href="#linear-gradient-2"/>
  </defs>
  <g id="Isometric_icon">
    <g>
      <polygon class="cls-6" points="952.57 916.31 330.67 557.25 330.67 1225.94 952.57 1585 1574.46 1225.94 1574.46 557.25 952.57 916.31"/>
      <polygon class="cls-5" points="1786.52 540.23 1164.62 899.29 952.57 916.31 1574.46 557.25 1786.52 540.23"/>
      <polygon class="cls-4" points="1574.46 557.25 952.57 916.31 330.67 557.25 952.57 198.19 1574.46 557.25"/>
      <polygon class="cls-3" points="898.8 0 276.91 359.06 330.67 557.25 952.57 198.19 898.8 0"/>
      <polygon class="cls-1" points="1574.46 557.25 1672.5 377.72 1050.6 18.66 952.57 198.19 1574.46 557.25"/>
      <polygon class="cls-2" points="952.57 916.31 621.89 803.56 0 444.5 330.67 557.25 952.57 916.31"/>
    </g>
  </g>
</svg>