<svg xmlns="http://www.w3.org/2000/svg" width="32" height="32" viewBox="0 0 32 32" fill="none">
  <path d="M16 32C24.8366 32 32 24.8366 32 16C32 7.16344 24.8366 0 16 0C7.16344 0 0 7.16344 0 16C0 24.8366 7.16344 32 16 32ZM16 31C7.71573 31 1 24.2843 1 16C1 7.71573 7.71573 1 16 1C24.2843 1 31 7.71573 31 16C31 24.2843 24.2843 31 16 31ZM21.1736 10.7293H19.3849L16.4024 14.0979L13.8555 10.7293H10.1653L14.5593 16.4862L10.3986 21.2706H12.1873L15.4147 17.5831L18.2339 21.2706H21.8346L17.2462 15.2026L21.1736 10.7293ZM19.7504 20.2204H18.7588L12.269 11.7407H13.3344L19.7504 20.2204Z" fill="#252525"/>
</svg>