<svg xmlns="http://www.w3.org/2000/svg" width="49" height="48" viewBox="0 0 49 48" fill="none">
  <path d="M26.6783 4.49999C26.6783 3.17451 25.6038 2.09999 24.2783 2.09999C22.9528 2.09999 21.8783 3.17451 21.8783 4.49999C21.8783 5.82548 22.9528 6.89999 24.2783 6.89999C25.6038 6.89999 26.6783 5.82548 26.6783 4.49999ZM27.8783 4.49999C27.8783 6.48822 26.2665 8.09999 24.2783 8.09999C22.2901 8.09999 20.6783 6.48822 20.6783 4.49999C20.6783 2.51177 22.2901 0.899994 24.2783 0.899994C26.2665 0.899994 27.8783 2.51177 27.8783 4.49999ZM38.0683 12.6113C36.7428 12.6113 35.6683 11.5367 35.6683 10.2113C35.6683 8.88578 36.7428 7.81126 38.0683 7.81126C39.3937 7.81126 40.4683 8.88578 40.4683 10.2113C40.4683 11.5367 39.3937 12.6113 38.0683 12.6113ZM38.0683 13.8113C40.0565 13.8113 41.6683 12.1995 41.6683 10.2113C41.6683 8.22303 40.0565 6.61126 38.0683 6.61126C36.08 6.61126 34.4683 8.22303 34.4683 10.2113C34.4683 12.1995 36.08 13.8113 38.0683 13.8113ZM12.9984 37.7338C12.9984 36.4083 11.9239 35.3338 10.5984 35.3338C9.27288 35.3338 8.19837 36.4083 8.19837 37.7338C8.19837 39.0592 9.27288 40.1338 10.5984 40.1338C11.9239 40.1338 12.9984 39.0592 12.9984 37.7338ZM14.1984 37.7338C14.1984 39.722 12.5866 41.3338 10.5984 41.3338C8.61014 41.3338 6.99837 39.722 6.99837 37.7338C6.99837 35.7455 8.61014 34.1338 10.5984 34.1338C12.5866 34.1338 14.1984 35.7455 14.1984 37.7338ZM40.4683 37.7338C40.4683 36.4083 39.3937 35.3338 38.0683 35.3338C36.7428 35.3338 35.6683 36.4083 35.6683 37.7338C35.6683 39.0592 36.7428 40.1338 38.0683 40.1338C39.3937 40.1338 40.4683 39.0592 40.4683 37.7338ZM41.6683 37.7338C41.6683 39.722 40.0565 41.3338 38.0683 41.3338C36.08 41.3338 34.4683 39.722 34.4683 37.7338C34.4683 35.7455 36.08 34.1338 38.0683 34.1338C40.0565 34.1338 41.6683 35.7455 41.6683 37.7338ZM31.3041 24C31.3041 20.1502 28.1832 17.0292 24.3334 17.0292C20.4835 17.0292 17.3626 20.1502 17.3626 24C17.3626 27.8499 20.4835 30.9708 24.3334 30.9708C28.1832 30.9708 31.3041 27.8499 31.3041 24ZM32.5041 24C32.5041 28.5126 28.8459 32.1708 24.3334 32.1708C19.8208 32.1708 16.1626 28.5126 16.1626 24C16.1626 19.4874 19.8208 15.8292 24.3334 15.8292C28.8459 15.8292 32.5041 19.4874 32.5041 24ZM10.5984 12.6113C9.27288 12.6113 8.19837 11.5367 8.19837 10.2113C8.19837 8.88578 9.27288 7.81126 10.5984 7.81126C11.9239 7.81126 12.9984 8.88578 12.9984 10.2113C12.9984 11.5367 11.9239 12.6113 10.5984 12.6113ZM10.5984 13.8113C12.5866 13.8113 14.1984 12.1995 14.1984 10.2113C14.1984 8.22303 12.5866 6.61126 10.5984 6.61126C8.61014 6.61126 6.99837 8.22303 6.99837 10.2113C6.99837 12.1995 8.61014 13.8113 10.5984 13.8113ZM46.2333 24C46.2333 22.6745 45.1588 21.6 43.8333 21.6C42.5078 21.6 41.4333 22.6745 41.4333 24C41.4333 25.3255 42.5078 26.4 43.8333 26.4C45.1588 26.4 46.2333 25.3255 46.2333 24ZM47.4333 24C47.4333 25.9882 45.8215 27.6 43.8333 27.6C41.8451 27.6 40.2333 25.9882 40.2333 24C40.2333 22.0118 41.8451 20.4 43.8333 20.4C45.8215 20.4 47.4333 22.0118 47.4333 24ZM24.2783 45.9C22.9528 45.9 21.8783 44.8255 21.8783 43.5C21.8783 42.1745 22.9528 41.1 24.2783 41.1C25.6038 41.1 26.6783 42.1745 26.6783 43.5C26.6783 44.8255 25.6038 45.9 24.2783 45.9ZM24.2783 47.1C26.2665 47.1 27.8783 45.4882 27.8783 43.5C27.8783 41.5118 26.2665 39.9 24.2783 39.9C22.2901 39.9 20.6783 41.5118 20.6783 43.5C20.6783 45.4882 22.2901 47.1 24.2783 47.1ZM19.5966 5.33992C17.854 5.78086 16.206 6.45958 14.689 7.33969L14.0868 6.30173C15.6985 5.36665 17.45 4.64527 19.3022 4.17658L19.5966 5.33992ZM34.0508 7.38231C32.5137 6.48147 30.8407 5.78795 29.0701 5.33992L29.3645 4.17658C31.2465 4.65281 33.0245 5.38992 34.6576 6.34701L34.0508 7.38231ZM42.9462 19.0803C42.4716 17.2799 41.7427 15.5827 40.7999 14.0292L41.8258 13.4066C42.8274 15.057 43.6021 16.8608 44.1065 18.7744L42.9462 19.0803ZM7.73368 14.2519C6.9015 15.6658 6.24494 17.1952 5.79383 18.8102L4.63808 18.4873C5.11758 16.7707 5.81537 15.1454 6.69951 13.6432L7.73368 14.2519ZM41.0492 33.548C41.8718 32.111 42.5143 30.5581 42.9462 28.9197L44.1065 29.2256C43.6475 30.967 42.9646 32.6175 42.0906 34.1442L41.0492 33.548ZM5.79383 29.1899C6.24494 30.8048 6.9015 32.3342 7.73368 33.7482L6.69951 34.3568C5.81537 32.8546 5.11758 31.2293 4.63808 29.5127L5.79383 29.1899ZM14.636 40.6295C16.0333 41.4461 17.5424 42.0915 19.1349 42.5371L18.8115 43.6927C17.1189 43.2191 15.515 42.5331 14.0305 41.6655L14.636 40.6295ZM29.5318 42.5371C31.0399 42.1151 32.4733 41.5139 33.8077 40.7578L34.3992 41.8019C32.9815 42.6052 31.4582 43.2442 29.8551 43.6927L29.5318 42.5371ZM7.23331 24C7.23331 22.6745 6.1588 21.6 4.83331 21.6C3.50783 21.6 2.43331 22.6745 2.43331 24C2.43331 25.3255 3.50783 26.4 4.83331 26.4C6.1588 26.4 7.23331 25.3255 7.23331 24ZM8.43331 24C8.43331 25.9882 6.82154 27.6 4.83331 27.6C2.84509 27.6 1.23331 25.9882 1.23331 24C1.23331 22.0118 2.84509 20.4 4.83331 20.4C6.82154 20.4 8.43331 22.0118 8.43331 24ZM23.6865 12.4567V9.26459H24.8865V12.4339L25.6204 11.6326L26.5053 12.4431L24.2909 14.8609L22.0355 12.4476L22.9122 11.6282L23.6865 12.4567ZM23.6865 38.9774V35.7853L22.9122 36.6138L22.0355 35.7944L24.2909 33.3811L26.5053 35.7988L25.6204 36.6093L24.8865 35.808V38.9774H23.6865ZM15.609 16.2845L13.3519 14.0274L14.2004 13.1788L16.4415 15.4199L16.3938 14.3344L17.5926 14.2817L17.7364 17.5571L14.4352 17.4455L14.4757 16.2462L15.609 16.2845ZM34.362 35.0375L32.1048 32.7804L32.1432 33.9136L30.9438 33.9542L30.8322 30.6529L34.1076 30.7967L34.055 31.9956L32.9694 31.9479L35.2105 34.189L34.362 35.0375ZM12.604 24.7029H9.41196V23.5029H12.5813L11.78 22.769L12.5905 21.884L15.0083 24.0984L12.595 26.3538L11.7756 25.4771L12.604 24.7029ZM39.1248 24.7029H35.9327L36.7611 25.4771L35.9418 26.3538L33.5285 24.0984L35.9462 21.884L36.7567 22.769L35.9554 23.5029H39.1248V24.7029ZM16.4319 32.7804L14.1748 35.0375L13.3262 34.189L15.5673 31.9479L14.4817 31.9956L14.4291 30.7967L17.7045 30.6529L17.5929 33.9542L16.3936 33.9136L16.4319 32.7804ZM35.1849 14.0274L32.9277 16.2845L34.061 16.2462L34.1016 17.4455L30.8003 17.5571L30.9441 14.2817L32.1429 14.3344L32.0953 15.4199L34.3363 13.1788L35.1849 14.0274Z" fill="#266CD3"/>
</svg>