<svg width="14" height="14" viewBox="0 0 14 14" fill="none" xmlns="http://www.w3.org/2000/svg">
<rect width="14" height="14" rx="2.40625" fill="#5D42FF"/>
<path fill-rule="evenodd" clip-rule="evenodd" d="M6.44472 3.6968C5.10065 4.28784 4.36655 5.81392 4.72914 7.27006C5.02673 8.13875 5.62641 8.75779 6.51573 9.07415C8.13857 9.47177 9.65729 8.58064 9.51221 6.82925C9.43486 6.15706 8.98136 5.61064 8.40279 5.43344C7.88836 5.27588 7.33526 5.40653 6.99431 5.72422C6.65335 6.04192 6.5241 6.43321 6.66065 6.88802C6.73602 7.13811 6.91702 7.29373 7.16329 7.36799C7.39073 7.38827 7.62079 7.29061 7.67558 7.159C7.6496 7.11552 7.62684 7.06795 7.59528 7.02706C7.44221 6.75373 7.5635 6.49241 7.70886 6.36047C7.90639 6.18117 8.21122 6.18889 8.42142 6.3374C8.76238 6.57782 8.88635 7.17059 8.70106 7.5718C8.39102 8.2429 7.68125 8.51025 6.94975 8.32019C5.87168 8.04008 5.34654 6.82925 5.64926 5.93187C6.1446 4.46351 7.76963 3.93451 9.13577 4.51157C10.1815 5.06713 10.6629 5.95734 10.6629 7.25736C10.5879 9.20507 8.62738 10.65 6.66151 10.2743C4.7549 9.9102 3.33912 8.07999 3.44068 6.34928C3.47804 5.71023 3.61996 5.11187 3.94611 4.5628C4.79463 3.13491 6.11637 2.46294 7.76963 2.35424C8.20484 2.32562 8.65506 2.33509 9.06969 2.3353C9.04693 2.32519 8.98191 2.29923 8.9278 2.279C8.18548 1.99279 7.26699 1.88857 6.43285 2.01675C5.90273 2.08219 5.41342 2.22575 4.96854 2.43109C4.96038 2.43237 4.95072 2.43517 4.93891 2.44012C4.7388 2.52557 4.70531 2.32927 4.63424 2.26987C4.56511 2.21218 4.57412 2.28386 4.57412 2.28386C4.63446 2.57163 4.4833 2.68764 4.4629 2.70185C4.33687 2.77999 4.21599 2.86436 4.09919 2.95304C4.09575 2.95454 4.09317 2.95454 4.08953 2.95626C3.81363 3.08239 3.69898 2.8693 3.57208 2.80452C3.43789 2.73607 3.48857 2.84843 3.48857 2.84843C3.65475 3.17946 3.51131 3.46271 3.48448 3.5105C3.36682 3.63771 3.25667 3.77137 3.15361 3.91019C3.14288 3.91708 3.13236 3.92354 3.12012 3.93451C2.84916 4.1801 2.63832 3.98574 2.47085 3.94916C2.28619 3.90912 2.39076 4.0303 2.39076 4.0303C2.73236 4.38093 2.62436 4.80258 2.62436 4.80258C2.19537 5.7035 2.01859 6.83481 2.22516 7.95821C3.00395 11.8272 7.36112 13.1554 10.1932 11.0236C11.33 10.0785 11.8611 8.86249 11.8611 7.532C11.8611 6.64163 11.5812 5.68319 11.1691 5.14541C10.688 4.36921 9.78786 3.69251 8.76564 3.46778C8.00104 3.29969 7.15582 3.38409 6.44472 3.6968Z" fill="white"/>
</svg>
