<svg xmlns="http://www.w3.org/2000/svg" width="32" height="32" viewBox="0 0 32 32" fill="none">
  <path fill-rule="evenodd" clip-rule="evenodd" d="M21.4096 12.6804C21.776 13.0468 21.933 13.8842 21.933 13.9888C21.933 13.9969 21.9355 14.0272 21.9395 14.0763C21.9615 14.3459 22.0296 15.1805 21.9853 15.9777V16.8674C21.9853 17.6763 21.9161 18.4505 21.8902 18.7394C21.8843 18.8057 21.8807 18.8465 21.8807 18.8562C21.8807 18.9609 21.7237 19.7983 21.3573 20.217C20.9334 20.641 20.467 20.7257 20.1872 20.7766C20.1561 20.7823 20.1274 20.7875 20.1012 20.7927H20.0488C18.4264 20.8974 15.9665 20.8974 15.9665 20.8974C15.8618 20.8974 12.9833 20.8974 12.0412 20.7927H11.8842C11.8618 20.789 11.8385 20.7853 11.8141 20.7814C11.4963 20.7308 11.017 20.6546 10.6281 20.217C10.2617 19.8507 10.1047 19.0133 10.1047 18.9086C10.1047 18.8988 10.101 18.8581 10.0951 18.7918C10.0693 18.5028 10 17.7286 10 16.9197V16.03C10 15.2212 10.0693 14.4469 10.0951 14.158C10.101 14.0917 10.1047 14.0509 10.1047 14.0412C10.1047 13.9365 10.2617 13.0991 10.6281 12.6804C11.0991 12.157 11.6225 12.1047 11.8842 12.1047H11.9365C13.559 12 16.0188 12 16.0188 12C16.0712 12 18.4787 12 20.1012 12.1047H20.1535C20.4152 12.1047 20.9386 12.157 21.4096 12.6804ZM14.9197 18.2282L18.06 16.5534C18.1647 16.501 18.2694 16.3964 18.2694 16.2917C18.2694 16.187 18.217 16.1347 18.1124 16.0823L14.9721 14.4075C14.8674 14.3552 14.7627 14.3552 14.7104 14.4075C14.6581 14.4599 14.6057 14.5122 14.6057 14.6169V18.0188C14.6057 18.1235 14.6581 18.1759 14.7104 18.2282C14.7104 18.2805 14.7627 18.2805 14.8151 18.2805C14.8412 18.2805 14.8543 18.2674 14.8674 18.2544C14.8805 18.2413 14.8936 18.2282 14.9197 18.2282Z" fill="#252525"/>
  <path fill-rule="evenodd" clip-rule="evenodd" d="M32 16C32 24.8366 24.8366 32 16 32C7.16344 32 0 24.8366 0 16C0 7.16344 7.16344 0 16 0C24.8366 0 32 7.16344 32 16ZM31 16C31 24.2843 24.2843 31 16 31C7.71573 31 1 24.2843 1 16C1 7.71573 7.71573 1 16 1C24.2843 1 31 7.71573 31 16Z" fill="#252525"/>
</svg>