<svg width="22" height="16" viewBox="0 0 22 16" fill="none" xmlns="http://www.w3.org/2000/svg">
<g id="Youtube">
<path id="Subtract" d="M10.9946 0.922363C10.9946 0.922363 4.67274 0.922369 3.08604 1.33467C2.23646 1.57205 1.53689 2.27162 1.29951 3.13369C0.887216 4.7204 0.887207 8.00635 0.887207 8.00635C0.887207 8.00635 0.887216 11.3048 1.29951 12.8665C1.53689 13.7286 2.22396 14.4156 3.08604 14.653C4.68524 15.0778 10.9946 15.0778 10.9946 15.0778C10.9946 15.0778 17.329 15.0778 18.9157 14.6655C19.7778 14.4281 20.4649 13.7536 20.6897 12.879C21.1145 11.3048 21.1146 8.01885 21.1146 8.01885C21.1146 8.01885 21.127 4.7204 20.6897 3.13369C20.4649 2.27162 19.7778 1.58456 18.9157 1.35967C17.329 0.922383 10.9946 0.922363 10.9946 0.922363ZM8.98311 4.97041L14.2431 8.00635L8.98311 11.0298V4.97041Z" fill="#64748B"/>
</g>
</svg>
